<?xml version="1.0" standalone="no"?>
<!DOCTYPE svg PUBLIC "-//W3C//DTD SVG 20010904//EN"
 "http://www.w3.org/TR/2001/REC-SVG-20010904/DTD/svg10.dtd">
<svg version="1.0" xmlns="http://www.w3.org/2000/svg"
 width="500.000000pt" height="500.000000pt" viewBox="0 0 500.000000 500.000000"
 preserveAspectRatio="xMidYMid meet">

<g transform="translate(0.000000,500.000000) scale(0.100000,-0.100000)"
fill="#000000" stroke="none">
<path d="M470 4984 c-220 -47 -408 -237 -455 -459 -13 -60 -15 -345 -15 -2031
0 -1920 0 -1962 20 -2038 29 -113 73 -190 160 -276 86 -87 163 -131 276 -160
76 -20 118 -20 2039 -20 1348 0 1980 3 2021 11 94 17 214 80 292 153 74 71
121 142 161 244 l26 67 3 1990 c3 2215 7 2061 -65 2208 -26 51 -58 94 -112
147 -87 87 -164 131 -277 160 -76 20 -117 20 -2043 19 -1646 0 -1977 -3 -2031
-15z m1352 -2056 l3 -391 274 391 273 392 225 0 225 0 -24 -32 c-51 -68 -545
-744 -551 -755 -6 -10 412 -523 432 -531 5 -2 29 52 54 120 25 68 109 290 187
493 78 204 171 444 205 535 l63 165 211 3 211 2 -25 -57 c-14 -32 -166 -395
-339 -808 l-314 -750 -259 -3 -259 -2 -295 406 -294 406 -3 -406 -2 -406 -185
0 -185 0 0 810 0 810 185 0 185 0 2 -392z"/>
</g>
</svg>
